# xmcd
#
# Track frame offsets: 
#        150
#        18089
#        33157
#        48010
#        61861
#        75055
#        99200
#        113279
#        143959
#        162333
#        177369
#        194419
#
# Disc length: 2838 seconds
#
# Revision: 0
# Processed by: cddbd v1.4PL0 Copyright (c) Steve Scherf et al.
# Submitted via: ExactAudioCopy v0.90b4
#
DISCID=7d0b140c
DTITLE=The Dusters - Unlisted number
DYEAR=1900
DGENRE=Blues
TTITLE0=Roadhouse blues
TTITLE1=Unlisted number
TTITLE2=Devil risin' in me
TTITLE3=Rex cycletire
TTITLE4=She cut me off
TTITLE5=Power over you
TTITLE6=Don't the girls all get prettier at closing time
TTITLE7=Deep, deep scar
TTITLE8=Something about you
TTITLE9=Wild about my baby
TTITLE10=Red hot and ready to roll
TTITLE11=It ouhgta be a crime
EXTD=
EXTT0=
EXTT1=
EXTT2=
EXTT3=
EXTT4=
EXTT5=
EXTT6=
EXTT7=
EXTT8=
EXTT9=
EXTT10=
EXTT11=
PLAYORDER=
